<svg xmlns="http://www.w3.org/2000/svg" width="16" height="19.349" viewBox="0 0 16 19.349"><defs><style>.a{fill:#455a64;}</style></defs><g transform="translate(-2.25)"><path class="a" d="M15.613,14.547v2.57a.744.744,0,0,1-.742.744H4.477a.744.744,0,0,1-.742-.744V2.233a.744.744,0,0,1,.742-.744H14.871a.744.744,0,0,1,.742.744V4.8L17.1,6.092V2.233A2.231,2.231,0,0,0,14.871,0H4.477A2.231,2.231,0,0,0,2.25,2.233V17.116a2.231,2.231,0,0,0,2.227,2.233H14.871A2.231,2.231,0,0,0,17.1,17.116v-3.86Z"/><g transform="translate(6.347 4.646)"><path class="a" d="M14.394,16.472s-.768.216-.768-.768v-1.92H9.018a.769.769,0,0,1-.768-.768V9.945a.769.769,0,0,1,.768-.768h4.608V7.233c0-1.032.768-.744.768-.744l5.76,4.992Z" transform="translate(-8.25 -6.452)"/></g></g></svg>