<svg xmlns="http://www.w3.org/2000/svg" width="15.572" height="16" viewBox="0 0 15.572 16"><defs><style>.a{fill:#fff;}</style></defs><g transform="translate(0 0)"><path class="a" d="M21.183,285a.885.885,0,0,1,.889.889v4.84a.885.885,0,0,1-.889.889H7.422a.914.914,0,0,1-.922-.889v-4.84A.914.914,0,0,1,7.422,285a.885.885,0,0,1,.889.889v3.918H20.294v-3.918A.885.885,0,0,1,21.183,285Z" transform="translate(-6.5 -275.617)"/><path class="a" d="M110.143,11.391,106.522,7.77a.885.885,0,1,1,1.251-1.251l2.107,2.074V.889a.889.889,0,0,1,1.778,0v7.7l2.074-2.074a.9.9,0,0,1,1.284,0,.856.856,0,0,1,0,1.251l-3.621,3.621a.874.874,0,0,1-1.251,0Z" transform="translate(-102.966)"/></g></svg>