<svg xmlns="http://www.w3.org/2000/svg" width="16" height="16" viewBox="0 0 16 16"><defs><style>.a{fill:#455a64;}</style></defs><path class="a" d="M15.531,2.813A.468.468,0,0,0,16,2.344V.469A.468.468,0,0,0,15.531,0H13.656a.468.468,0,0,0-.469.469V.938H2.813V.469A.464.464,0,0,0,2.344,0H.469A.464.464,0,0,0,0,.469V2.344a.464.464,0,0,0,.469.469H.938V13.188H.469A.468.468,0,0,0,0,13.656v1.875A.468.468,0,0,0,.469,16H2.344a.468.468,0,0,0,.469-.469v-.469H13.188v.469a.464.464,0,0,0,.469.469h1.875A.464.464,0,0,0,16,15.531V13.656a.464.464,0,0,0-.469-.469h-.469V2.813ZM14.125,13.188h-.469a.464.464,0,0,0-.469.469v.469H2.813v-.469a.468.468,0,0,0-.469-.469H1.875V2.813h.469a.464.464,0,0,0,.469-.469V1.875H13.188v.469a.468.468,0,0,0,.469.469h.469Z"/></svg>