<svg xmlns="http://www.w3.org/2000/svg" width="16" height="16" viewBox="0 0 16 16"><defs><style>.a{fill:#455a64;}</style></defs><g transform="translate(0 -26.353)"><g transform="translate(0 26.353)"><path class="a" d="M.553,35.881h1.3v5.846a.6.6,0,0,0,.559.626H6.231a.6.6,0,0,0,.559-.626v-4.28H9.117v4.28a.6.6,0,0,0,.559.626h3.63a.6.6,0,0,0,.559-.626V35.881h1.583a.562.562,0,0,0,.512-.386.686.686,0,0,0-.121-.679l-7.28-8.278a.515.515,0,0,0-.782-.01L.171,34.806a.682.682,0,0,0-.13.689A.548.548,0,0,0,.553,35.881Zm7.6-8.017,5.958,6.764h-.8a.6.6,0,0,0-.559.626V41.1H10.234v-4.28a.6.6,0,0,0-.559-.626H6.231a.6.6,0,0,0-.559.626V41.1h-2.7V35.255a.6.6,0,0,0-.559-.626H1.93Z" transform="translate(0 -26.353)"/></g></g></svg>