<svg xmlns="http://www.w3.org/2000/svg" width="13" height="16" viewBox="0 0 13 16"><defs><style>.a{fill:#455a64;}</style></defs><path class="a" d="M36.56,0H29.592a.923.923,0,0,0-.962.875v14.25a.923.923,0,0,0,.962.875H40.668a.923.923,0,0,0,.962-.875V4.32a.832.832,0,0,0-.282-.619L37.229.247A1.007,1.007,0,0,0,36.56,0Zm3.867,14.906H29.833V1.094h5.755V4.029A1.239,1.239,0,0,0,36.879,5.2h3.548ZM36.879,4.11a.085.085,0,0,1-.089-.081v-2.3l2.8,2.384H36.879ZM31.586,7.133a.683.683,0,1,0,.747.68A.717.717,0,0,0,31.586,7.133Zm1.363.133h6.375V8.36H32.95ZM31.586,9.321a.683.683,0,1,0,.747.68A.717.717,0,0,0,31.586,9.321Zm1.363.133h6.375v1.094H32.95Zm-1.363,2.055a.683.683,0,1,0,.747.68A.717.717,0,0,0,31.586,11.509Zm1.363.133h6.375v1.094H32.95Z" transform="translate(-28.63)"/></svg>