<svg xmlns="http://www.w3.org/2000/svg" width="169.201" height="41.583" viewBox="0 0 169.201 41.583"><defs><style>.a{fill:#fff;}</style></defs><g transform="translate(-137 -360.08)"><path class="a" d="M157.378,365.15a20.378,20.378,0,1,0,20.378,20.377,20.378,20.378,0,0,0-20.378-20.377Zm-5.807,10.178h-1.647v9.166h1.647v3.2h-1.647v11.97H145.6V371.393h5.974Zm17.593.019h-4.732a7.191,7.191,0,0,1,.781,1.971h3.947v3.953h-3.837c-.5,2.927-2.437,5.862-7.643,6.577.955,1.076,9.582,11.815,9.582,11.815h-5.3l-9.8-11.963-.024-3.327.635-.049,2.493-.024s4.3.244,5.5-3.03h-8.623v-3.953h8.284c-.663-1.079-2.041-2.038-4.946-1.965h-3.344v-3.959h17.023Z" transform="translate(0 -4.316)"/><path class="a" d="M455.928,381.067h-5.171v10.268H446.12V364.64h9.386q4.621,0,7.136,2.074a7.321,7.321,0,0,1,2.508,6.008,7.515,7.515,0,0,1-1.293,4.486,8.215,8.215,0,0,1-3.6,2.78l5.995,11.117v.238h-4.967Zm-5.171-3.736h4.768a5.282,5.282,0,0,0,3.666-1.189,4.136,4.136,0,0,0,1.32-3.235,4.39,4.39,0,0,0-1.219-3.318,5.182,5.182,0,0,0-3.64-1.21h-4.9Z" transform="translate(-263.161 -3.882)"/><path class="a" d="M620.82,364.64v17.841a8.67,8.67,0,0,1-2.722,6.738,10.312,10.312,0,0,1-7.239,2.481,10.441,10.441,0,0,1-7.285-2.447,8.679,8.679,0,0,1-2.694-6.793V364.64h4.627V382.5a5.672,5.672,0,0,0,1.357,4.089,5.292,5.292,0,0,0,4,1.412q5.352,0,5.352-5.65V364.64Z" transform="translate(-394.912 -3.882)"/><path class="a" d="M772.979,381.435v9.9H768.34V364.64h10.208a10.329,10.329,0,0,1,7.105,2.331,7.842,7.842,0,0,1,2.633,6.167,7.578,7.578,0,0,1-2.575,6.112q-2.575,2.184-7.215,2.184Zm0-3.741h5.569a5.493,5.493,0,0,0,3.778-1.164,4.278,4.278,0,0,0,1.3-3.362,4.614,4.614,0,0,0-1.32-3.455,5.09,5.09,0,0,0-3.629-1.329h-5.7Z" transform="translate(-537.475 -3.882)"/><path class="a" d="M909.105,385.119h-10.34l-2.163,6.216H891.78l10.083-26.695h4.163l10.1,26.695h-4.839Zm-9.039-3.739H907.8l-3.866-11.073Z" transform="translate(-642.562 -3.882)"/><path class="a" d="M1077.177,385.119h-10.34l-2.165,6.216h-4.822l10.085-26.695h4.163l10.1,26.695h-4.841Zm-9.04-3.739h7.731L1072,370.306Z" transform="translate(-785.644 -3.882)"/><path class="a" d="M1241.123,362.463a2.364,2.364,0,0,1,.65-1.705,2.461,2.461,0,0,1,1.861-.678,2.491,2.491,0,0,1,1.87.678,2.348,2.348,0,0,1,.66,1.705,2.291,2.291,0,0,1-.66,1.677,2.518,2.518,0,0,1-1.87.669,2.473,2.473,0,0,1-1.861-.669A2.306,2.306,0,0,1,1241.123,362.463Zm4.729,24.99h-4.46V367.615h4.46Z" transform="translate(-939.965)"/><path class="a" d="M615.694,591.8a1.736,1.736,0,0,0-1.322.575,2.654,2.654,0,0,0-.653,1.545h3.759v-.076a2.3,2.3,0,0,0-.517-1.475A1.6,1.6,0,0,0,615.694,591.8Z" transform="translate(-405.843 -197.266)"/><path class="a" d="M885.424,591.8a1.736,1.736,0,0,0-1.322.575,2.653,2.653,0,0,0-.653,1.545h3.769v-.076a2.3,2.3,0,0,0-.517-1.475A1.6,1.6,0,0,0,885.424,591.8Z" transform="translate(-635.47 -197.264)"/><path class="a" d="M446.12,565.12v11.1H569.355v-11.1Zm16.456,4.083a2.64,2.64,0,0,0-.471-.04,1.7,1.7,0,0,0-1.1.363,1.986,1.986,0,0,0-.641,1.054v4.312h-.691v-6.28h.679l.012,1a1.847,1.847,0,0,1,1.771-1.115,1.145,1.145,0,0,1,.459.076Zm12.916,2.59h-4.484v.134a2.63,2.63,0,0,0,.613,1.784,1.948,1.948,0,0,0,1.542.714,2.244,2.244,0,0,0,.984-.2,2.178,2.178,0,0,0,.776-.65l.436.332a2.547,2.547,0,0,1-2.23,1.109,2.7,2.7,0,0,1-2.458-1.5,3.442,3.442,0,0,1-.36-1.583v-.25a3.7,3.7,0,0,1,.351-1.635,2.791,2.791,0,0,1,.98-1.142A2.415,2.415,0,0,1,473,568.49a2.268,2.268,0,0,1,1.814.781,3.175,3.175,0,0,1,.672,2.135Zm13.216,3.1h-.678l-.01-.8a2.266,2.266,0,0,1-2,.913,1.941,1.941,0,0,1-1.527-.584,2.567,2.567,0,0,1-.535-1.728v-4.083h.691v4q0,1.794,1.453,1.794a1.78,1.78,0,0,0,1.911-1.247v-4.548h.7Zm12.762-.361a2.739,2.739,0,0,1-1.676.477,2.83,2.83,0,0,1-1.784-.532,1.635,1.635,0,0,1-.682-1.338h.7a1.212,1.212,0,0,0,.514.95,2.105,2.105,0,0,0,1.252.339,1.97,1.97,0,0,0,1.173-.32.96.96,0,0,0,.446-.807.99.99,0,0,0-.416-.83,3.184,3.184,0,0,0-1.252-.491,5.674,5.674,0,0,1-1.3-.407,1.732,1.732,0,0,1-.685-.56,1.4,1.4,0,0,1-.223-.8,1.487,1.487,0,0,1,.621-1.228,2.513,2.513,0,0,1,1.591-.485,2.584,2.584,0,0,1,1.687.519,1.674,1.674,0,0,1,.636,1.357h-.7a1.126,1.126,0,0,0-.461-.919,2.082,2.082,0,0,0-2.266-.061.943.943,0,0,0-.415.794.858.858,0,0,0,.345.729,3.637,3.637,0,0,0,1.261.473,5.945,5.945,0,0,1,1.371.459,1.785,1.785,0,0,1,.677.586,1.615,1.615,0,0,1-.421,2.1Zm14.132-2.736h-4.484v.134a2.63,2.63,0,0,0,.613,1.784,1.951,1.951,0,0,0,1.542.711,2.243,2.243,0,0,0,.984-.2,2.177,2.177,0,0,0,.776-.65l.436.332a2.546,2.546,0,0,1-2.23,1.109,2.7,2.7,0,0,1-2.458-1.5,3.442,3.442,0,0,1-.36-1.583v-.25a3.683,3.683,0,0,1,.352-1.635,2.787,2.787,0,0,1,.978-1.142,2.414,2.414,0,0,1,1.359-.415,2.272,2.272,0,0,1,1.815.781,3.158,3.158,0,0,1,.671,2.135Zm19.3,3.1h-.7v-6.279h.7Zm.009-7.77a.477.477,0,0,1-.352.132.446.446,0,0,1-.476-.462.467.467,0,0,1,.128-.332.446.446,0,0,1,.348-.135.476.476,0,0,1,.352.8ZM545.669,575a1.243,1.243,0,0,1-1.041-.416,1.942,1.942,0,0,1-.326-1.222v-4.193h-1.155v-.558H544.3V567h.7v1.609h1.31v.569h-1.3v4.191a1.305,1.305,0,0,0,.189.779.73.73,0,0,0,.63.256,4.307,4.307,0,0,0,.562-.058l.03.565a2.264,2.264,0,0,1-.751.1Zm10.006-.2a.506.506,0,0,1-.366.131.5.5,0,0,1-.364-.131.458.458,0,0,1-.129-.334.5.5,0,0,1,.129-.345.47.47,0,0,1,.364-.149.477.477,0,0,1,.366.149.485.485,0,0,1,.134.345.446.446,0,0,1-.132.346Z" transform="translate(-263.161 -174.555)"/></g></svg>