<svg xmlns="http://www.w3.org/2000/svg" width="40.755" height="40.755" viewBox="0 0 40.755 40.755"><defs><style>.a{fill:#fff;}</style></defs><path class="a" d="M157.378,365.15a20.378,20.378,0,1,0,20.378,20.377,20.378,20.378,0,0,0-20.378-20.377Zm-5.807,10.178h-1.647v9.166h1.647v3.2h-1.647v11.97H145.6V371.393h5.974Zm17.593.019h-4.732a7.191,7.191,0,0,1,.781,1.971h3.947v3.953h-3.837c-.5,2.927-2.437,5.862-7.643,6.577.955,1.076,9.582,11.815,9.582,11.815h-5.3l-9.8-11.963-.024-3.327.635-.049,2.493-.024s4.3.244,5.5-3.03h-8.623v-3.953h8.284c-.663-1.079-2.041-2.038-4.946-1.965h-3.344v-3.959h17.023Z" transform="translate(-137 -365.15)"/></svg>