<svg xmlns="http://www.w3.org/2000/svg" width="23.068" height="16" viewBox="0 0 23.068 16"><defs><style>.a{fill:#fff;}</style></defs><g transform="translate(0 -78.439)"><g transform="translate(0 85.623)"><g transform="translate(0 0)"><path class="a" d="M22.136,235.318H.932a.823.823,0,1,0,0,1.633h21.2a.823.823,0,1,0,0-1.633Z" transform="translate(0 -235.318)"/></g></g><g transform="translate(0 78.439)"><g transform="translate(0 0)"><path class="a" d="M22.136,78.439H.932a.823.823,0,1,0,0,1.633h21.2a.823.823,0,1,0,0-1.633Z" transform="translate(0 -78.439)"/></g></g><g transform="translate(0 92.806)"><g transform="translate(0 0)"><path class="a" d="M22.136,392.2H.932a.823.823,0,1,0,0,1.633h21.2a.823.823,0,1,0,0-1.633Z" transform="translate(0 -392.197)"/></g></g></g></svg>