<svg xmlns="http://www.w3.org/2000/svg" width="16" height="16" viewBox="0 0 16 16"><defs><style>.a{fill:#455a64;}</style></defs><path class="a" d="M151.49,90.979h4.928a.49.49,0,0,0,0-.979H151.49a.49.49,0,0,0,0,.979Zm0,0" transform="translate(-146.396 -87.195)"/><path class="a" d="M13.6,1.349,12.251,2.7V.469A.469.469,0,0,0,11.782,0h-8.5A.471.471,0,0,0,2.95.137L.137,2.95A.471.471,0,0,0,0,3.281V13.656A2.346,2.346,0,0,0,2.344,16h9.438a2.346,2.346,0,0,0,2.344-2.344v-.937a.469.469,0,0,0-.469-.469H12.251V6.676l3.338-3.338A1.406,1.406,0,0,0,13.6,1.349ZM2.813,1.6V2.813H1.6ZM3.75,12.719v.938a1.406,1.406,0,0,1-2.813,0V3.75H3.281a.469.469,0,0,0,.469-.469V.938h7.563v2.7L10.262,4.688H2.344a.469.469,0,1,0,0,.938h6.98l-.938.938H2.344a.469.469,0,1,0,0,.938H7.449l-.5.5a.469.469,0,0,0-.113.183l-.084.252H2.344a.469.469,0,1,0,0,.938H6.437l-.231.694-.244.243H2.344a.469.469,0,1,0,0,.938H6.091a.491.491,0,0,0,.4-.137l.381-.381L8.753,10.1a.47.47,0,0,0,.183-.113l2.377-2.377V12.25H4.219A.469.469,0,0,0,3.75,12.719Zm5.082-3.95-.481.481-.994.332.332-.994.481-.481Zm4.356,4.419v.469a1.408,1.408,0,0,1-1.406,1.406H4.218a2.332,2.332,0,0,0,.47-1.406v-.469Zm.743-9.518L9.495,8.106l-.663-.663,4.436-4.436Zm.995-.995-.332.332-.663-.663.332-.332a.469.469,0,0,1,.663.663Zm0,0"/></svg>