<svg xmlns="http://www.w3.org/2000/svg" width="16" height="16" viewBox="0 0 16 16"><defs><style>.a{fill:#455a64;}</style></defs><path class="a" d="M14.5,0H1.5A1.5,1.5,0,0,0,0,1.5v13A1.5,1.5,0,0,0,1.5,16h13A1.5,1.5,0,0,0,16,14.5V1.5A1.5,1.5,0,0,0,14.5,0ZM15,14.5a.5.5,0,0,1-.5.5H1.5a.5.5,0,0,1-.5-.5V1.5A.5.5,0,0,1,1.5,1h13a.5.5,0,0,1,.5.5ZM13,2H3A1,1,0,0,0,2,3V5A1,1,0,0,0,3,6H13a1,1,0,0,0,1-1V3A1,1,0,0,0,13,2ZM3,5V3H13V5ZM5,7H3A1,1,0,0,0,2,8v5a1,1,0,0,0,1,1H5a1,1,0,0,0,1-1V8A1,1,0,0,0,5,7ZM3,13V8H5v5ZM13,7H8A1,1,0,0,0,7,8v5a1,1,0,0,0,1,1h5a1,1,0,0,0,1-1V8A1,1,0,0,0,13,7ZM8,13V8h5v5Z"/></svg>