<svg xmlns="http://www.w3.org/2000/svg" width="16" height="16" viewBox="0 0 16 16"><defs><style>.a{fill:#455a64;}</style></defs><g transform="translate(-24.736 -407)"><path class="a" d="M74.392.632a2.153,2.153,0,0,0-3.044,0l-.581.581a.8.8,0,0,0-1.13,1.129l.188.188L63.549,8.806h0L61.37,10.984a.98.98,0,0,0-.286.649l-.005.116v0l-.088,1.97a.325.325,0,0,0,.326.34h.015l1.045-.046h0l.637-.028.289-.013a1.286,1.286,0,0,0,.85-.374l8.372-8.37.157.157a.8.8,0,0,0,1.13-1.129l.581-.581A2.152,2.152,0,0,0,74.392.632ZM68.346,7.9l-2.94.555,4.8-4.8,1.193,1.192Z" transform="translate(-34.286 406.999)"/><path class="a" d="M2.082,423.872c-1.15,0-2.082.3-2.082.66s.932.659,2.082.659,2.081-.3,2.081-.659S3.231,423.872,2.082,423.872Z" transform="translate(24.736 -2.191)"/></g></svg>