<svg xmlns="http://www.w3.org/2000/svg" width="14.599" height="15" viewBox="0 0 14.599 15"><defs><style>.a{fill:#fff;}</style></defs><g transform="translate(-6.5)"><path class="a" d="M20.265,285a.823.823,0,0,1,.833.819v4.461a.823.823,0,0,1-.833.819H7.364a.85.85,0,0,1-.864-.819v-4.461A.85.85,0,0,1,7.364,285a.823.823,0,0,1,.833.819v3.611H19.432v-3.611A.823.823,0,0,1,20.265,285Z" transform="translate(0 -276.099)"/><path class="a" d="M109.944,10.5l-3.436-3.338a.774.774,0,0,1,0-1.153.829.829,0,0,1,1.187,0l2,1.912V.819a.844.844,0,0,1,1.687,0v7.1l1.968-1.912a.866.866,0,0,1,1.218,0,.774.774,0,0,1,0,1.153L111.131,10.5a.847.847,0,0,1-1.187,0Z" transform="translate(-96.723)"/></g></svg>