<svg xmlns="http://www.w3.org/2000/svg" width="16" height="16" viewBox="0 0 16 16"><defs><style>.a{fill:#455a64;}</style></defs><g transform="translate(-0.001)"><g transform="translate(0.001)"><path class="a" d="M301.936,299.856l-3.613-3.613a6.953,6.953,0,0,1-2.088,2.087l3.613,3.613a1.476,1.476,0,0,0,2.087-2.087Z" transform="translate(-286.369 -286.376)"/><path class="a" d="M11.811,5.905A5.905,5.905,0,1,0,5.906,11.81,5.905,5.905,0,0,0,11.811,5.905ZM5.906,10.334a4.429,4.429,0,1,1,4.429-4.429A4.433,4.433,0,0,1,5.906,10.334Z" transform="translate(-0.001)"/><path class="a" d="M75.817,79.261H76.8a2.463,2.463,0,0,1,2.461-2.46v-.984A3.449,3.449,0,0,0,75.817,79.261Z" transform="translate(-73.306 -73.305)"/></g></g></svg>